<svg height="512pt" viewBox="-61 0 512 512" width="512pt" xmlns="http://www.w3.org/2000/svg"><path d="m360 105v151h-60l-30-52.300781v-89.398438l30-24.300781h45c8.402344 0 15 6.597656 15 15zm0 0" fill="#ffd396"/><path d="m360 105v151h-30v-166h15c8.402344 0 15 6.597656 15 15zm0 0" fill="#ffb64c"/><path d="m150 150h120v106h-120zm0 0" fill="#ffd396"/><path d="m195 150h75v106h-75zm0 0" fill="#ffb64c"/><path d="m300 45v211h-60v-211c0-8.402344 6.597656-15 15-15h30c8.402344 0 15 6.597656 15 15zm0 0" fill="#ffd396"/><path d="m300 45v211h-30v-226h15c8.402344 0 15 6.597656 15 15zm0 0" fill="#ffb64c"/><path d="m339.601562 421-9.601562 77.800781c-1.199219 7.5-7.5 13.199219-15 13.199219h-240c-7.5 0-13.800781-5.699219-15-13.199219l-9.601562-77.800781 84.601562-30h120zm0 0" fill="#4bb9ec"/><path d="m255 391 84.601562 30-9.601562 77.800781c-1.199219 7.5-7.5 13.199219-15 13.199219h-120v-121zm0 0" fill="#0095ff"/><path d="m360 257.800781-9.300781 73.199219-95.699219 30h-120l-95.699219-30-9.300781-73.199219zm0 0" fill="#4bb9ec"/><path d="m360 257.800781-9.300781 73.199219-95.699219 30h-60v-103.199219zm0 0" fill="#0095ff"/><path d="m180 165c0 28.199219-4.5 60.699219-13.800781 94.898438h-122.398438c-9.300781-34.199219-13.800781-66.699219-13.800781-94.898438 0-5.699219.300781-11.101562.601562-16.199219h148.796876c.300781 5.097657.601562 10.5.601562 16.199219zm0 0" fill="#ffb64c"/><path d="m180 165c0 28.199219-4.5 60.699219-13.800781 94.898438h-61.199219v-111.097657h74.398438c.300781 5.097657.601562 10.5.601562 16.199219zm0 0" fill="#ff9100"/><path d="m179.398438 148.800781c-19.496094 19.800781-45.898438 31.199219-74.398438 31.199219s-54.902344-11.398438-74.398438-31.199219c.898438-15.601562 3.300782-29.703125 6.296876-42.601562 16.503906-66.597657 56.402343-100.800781 58.5-102.597657 2.703124-2.402343 6-3.601562 9.601562-3.601562s6.898438 1.199219 9.601562 3.601562c2.097657 1.796876 41.996094 36 58.5 102.597657 3 12.898437 5.398438 27 6.296876 42.601562zm0 0" fill="#ffd396"/><path d="m179.398438 148.800781c-19.496094 19.800781-45.898438 31.199219-74.398438 31.199219v-180c3.601562 0 6.898438 1.199219 9.601562 3.601562 2.097657 1.796876 41.996094 36 58.5 102.597657 3 12.898437 5.398438 27 6.296876 42.601562zm0 0" fill="#ffb64c"/><path d="m350.699219 331-11.097657 90h-84.601562c-14.097656 18.601562-36.300781 30-60 30s-45.902344-11.398438-60-30h-84.601562l-11.097657-90h95.699219c14.097656-18.601562 36.300781-30 60-30s45.902344 11.398438 60 30zm0 0" fill="#ffd236"/><path d="m120 105c0 8.398438-6.597656 15-15 15s-15-6.601562-15-15c0-8.402344 6.597656-15 15-15s15 6.597656 15 15zm0 0" fill="#596c76"/><path d="m390 256c0 8.398438-6.597656 15-15 15h-360c-8.402344 0-15-6.601562-15-15 0-8.402344 6.597656-15 15-15h360c8.402344 0 15 6.597656 15 15zm0 0" fill="#fff5f5"/><path d="m120 105c0 8.398438-6.597656 15-15 15v-30c8.402344 0 15 6.597656 15 15zm0 0" fill="#465a61"/><path d="m255 331h95.699219l-11.097657 90h-84.601562c-14.097656 18.601562-36.300781 30-60 30v-150c23.699219 0 45.902344 11.398438 60 30zm0 0" fill="#fdbf00"/><path d="m390 256c0 8.398438-6.597656 15-15 15h-180v-30h180c8.402344 0 15 6.597656 15 15zm0 0" fill="#efe2dd"/></svg>